<svg preserveAspectRatio="none" overflow="visible" style="display: block;" width="14" height="14" viewBox="0 0 14 14" fill="none" xmlns="http://www.w3.org/2000/svg">
<g id="Frame">
<path id="Vector" fill-rule="evenodd" clip-rule="evenodd" d="M6.96663 1.02083H7.03337C8.31128 1.02083 9.31502 1.02082 10.0987 1.12618C10.9017 1.23415 11.5389 1.45991 12.0395 1.96053C12.5401 2.46115 12.7658 3.0983 12.8738 3.90135C12.9792 4.68501 12.9792 5.68874 12.9792 6.96663V7.03337C12.9792 8.31128 12.9792 9.31502 12.8738 10.0987C12.7658 10.9017 12.5401 11.5389 12.0395 12.0395C11.5389 12.5401 10.9017 12.7658 10.0987 12.8738C9.31502 12.9792 8.31128 12.9792 7.03337 12.9792H6.96663C5.68874 12.9792 4.68501 12.9792 3.90135 12.8738C3.0983 12.7658 2.46115 12.5401 1.96053 12.0395C1.45991 11.5389 1.23415 10.9017 1.12618 10.0987C1.02082 9.31502 1.02083 8.31128 1.02083 7.03337V6.96663C1.02083 5.68874 1.02082 4.68501 1.12618 3.90135C1.23415 3.0983 1.45992 2.46115 1.96053 1.96053C2.46115 1.45991 3.0983 1.23415 3.90135 1.12618C4.68501 1.02082 5.68874 1.02083 6.96663 1.02083Z" fill="#3B82F6"/>
</g>
</svg>
