<svg preserveAspectRatio="none" overflow="visible" style="display: block;" width="13" height="13" viewBox="0 0 13 13" fill="none" xmlns="http://www.w3.org/2000/svg">
<g id="Frame" clip-path="url(#clip0_0_57)">
<path id="Vector" d="M2.4443 10.5552C3.8052 11.8513 5.42533 11.3329 6.07338 10.808C6.40868 10.5364 6.55942 10.3608 6.68899 10.2312C7.14263 9.80996 7.11349 9.38876 6.81861 9.05179C6.70063 8.91692 5.94376 8.18989 5.21795 7.44461C4.84208 7.0687 4.58286 6.80306 4.36122 6.58921C4.06442 6.29335 3.8052 5.95411 3.41637 5.9638C3.05995 5.9638 2.80073 6.27813 2.4767 6.60216C2.10395 6.97488 1.82866 7.44461 1.73145 7.86587C1.43983 9.09713 1.89346 9.97198 2.4443 10.5552ZM2.4443 10.5552L1.0834 11.9161" stroke="#5F6964" stroke-linecap="round"/>
<path id="Vector_2" d="M10.5553 2.44547C9.19403 1.14876 7.57949 1.67696 6.93127 2.20214C6.59587 2.47386 6.44513 2.6495 6.31545 2.77917C5.8617 3.20061 5.8909 3.62203 6.18583 3.95918C6.22825 4.00769 6.35332 4.13278 6.52979 4.30777M6.52979 4.30777C6.84423 4.6195 7.32198 5.08956 7.78695 5.56709C8.16292 5.94322 8.47963 6.26714 8.70133 6.4811C8.99822 6.77706 9.20005 7.05835 9.58902 7.0486C9.94554 7.0486 10.2048 6.73416 10.5289 6.40998C10.9018 6.03704 11.1771 5.56709 11.2744 5.14568C11.5661 3.9138 11.1063 3.02899 10.5553 2.44547M10.5553 2.44547L11.9166 1.08393M6.52979 4.30777L5.69368 5.14913M8.70133 6.4811L7.85547 7.30687" stroke="#5F6964" stroke-linecap="round"/>
</g>
<defs>
<clipPath id="clip0_0_57">
<rect width="13" height="13" fill="white"/>
</clipPath>
</defs>
</svg>
